<svg xmlns="http://www.w3.org/2000/svg" viewBox="0 0 1916.2 2735.13" style="background-color: white;"><g id="Environment"><path id="Whole_Environment" d="M131.27,2243.24c30-168,147-263,0-776-99-507-25-638-25-638,23-200-26.57-609.85-26.57-609.85S61.27,72.24,238.27,70.24s464.82,95.6,391,384c-75,293-180,447-111,672,70.41,229.61,113,414,90,509s-9,518,11,641c30,141-83,290-197,224S112.27,2445.24,131.27,2243.24Z" transform="translate(-76.65 -67.71)" style="fill:none;stroke:#000;stroke-miterlimit:10;stroke-width:5px"/><g id="Futures"><path d="M340.27,662.24c-148,17-227-94-226-158s77-89,77-89,212-77,295,91-146,156-146,156" transform="translate(-76.65 -67.71)" style="fill:none;stroke:#000;stroke-miterlimit:10;stroke-width:5px"/><path d="M160.27,269.24S497.55,191,575.91,412.6,297.27,549.24,245.27,501.24s-149-151-139-176C115.27,285.24,160.27,269.24,160.27,269.24Z" transform="translate(-76.65 -67.71)" style="fill:none;stroke:#000;stroke-miterlimit:10;stroke-width:5px"/><path d="M340.27,662.24c-148,17-227-94-226-158s77-89,77-89,212-77,295,91-146,156-146,156" transform="translate(-76.65 -67.71)" style="fill:none;stroke:#000;stroke-miterlimit:10;stroke-width:5px"/><path d="M160.27,269.24S497.55,191,575.91,412.6,297.27,549.24,245.27,501.24s-149-151-139-176C115.27,285.24,160.27,269.24,160.27,269.24Z" transform="translate(-76.65 -67.71)" style="fill:none;stroke:#000;stroke-miterlimit:10;stroke-width:5px"/></g><g id="EmbeddedMarkets"><path d="M272.71,1241.44c95.58-.22,124-146.84,124-146.84s13.56-195.36-112.44-222.36-108.61,184.6-108.61,184.6S187.14,1241.63,272.71,1241.44Z" transform="translate(-76.65 -67.71)" style="fill:none;stroke:#000;stroke-miterlimit:10;stroke-width:5px"/><path d="M272.71,1130.82c49.56.42,148.62,23.42,182.09,219.92s-5.64,347.11-58.09,353.31-102.44,4.19-110.44-158.81-80-209-85-261C200.27,1231.24,223.14,1130.41,272.71,1130.82Z" transform="translate(-76.65 -67.71)" style="fill:none;stroke:#000;stroke-miterlimit:10;stroke-width:5px"/><path d="M529.87,1709.86s-53.33-180.46-173.46-60-109.27,217.34-83.7,247.88,175.45,211.82,230.5,62.18S529.87,1709.86,529.87,1709.86Z" transform="translate(-76.65 -67.71)" style="fill:none;stroke:#000;stroke-miterlimit:10;stroke-width:5px"/><path d="M298.27,1928.24c2-20,136-250,223-5,43,251-87,415-131,417C322.27,2351.24,226.27,2089.24,298.27,1928.24Z" transform="translate(-76.65 -67.71)" style="fill:none;stroke:#000;stroke-miterlimit:10;stroke-width:5px"/><path d="M291.27,2332.24s112.55,259,239.28,0-52.28-950-52.28-950-63-487,1-552-145-257-260-84-76,538-76,538S253.27,2340.24,291.27,2332.24Z" transform="translate(-76.65 -67.71)" style="fill:none;stroke:#000;stroke-miterlimit:10;stroke-width:5px"/></g><g id="Labels"><text transform="translate(209.76 2022.16)" style="font-size:31px;font-family:Helvetica">COMPETI<tspan x="141.23" y="0" style="letter-spacing:-0.017578125em">T</tspan><tspan x="159.62" y="0">ORS</tspan></text><text transform="translate(211.59 1728.01) scale(1.03 1)" style="font-size:35.78255844116211px;font-family:Helvetica">CUS<tspan x="75.55" y="0" style="letter-spacing:-0.017578125654718682em">T</tspan><tspan x="96.78" y="0">OMERS</tspan></text><text transform="translate(218.67 1297.3)" style="font-size:37px;font-family:Helvetica">LOCA<tspan x="100.76" y="0" style="letter-spacing:-0.03662109375em">L</tspan><tspan x="-29.44" y="44.4">MARKETS</tspan></text><text transform="translate(104.51 997.72)" style="font-size:37px;font-family:Helvetica">SUPPLIERS</text><text transform="translate(161.5 741.92)" style="font-size:37px;font-family:Helvetica">EMBEDDED<tspan x="15.42" y="44.4">MARKETS</tspan></text><text transform="translate(140.3 103.1)" style="font-size:37px;font-family:Helvetica">WHOLE<tspan x="-68.54" y="44.4">ENVIRONMEN</tspan><tspan x="182.26" y="44.4" style="letter-spacing:-0.017578125em">T</tspan></text><text transform="translate(62.43 320.1)" style="font-size:37px;font-family:Helvetica">POTENTIA<tspan x="185.02" y="0" style="letter-spacing:-0.03662109375em">L</tspan><tspan x="204.24" y="0" xml:space="preserve"> FUTURE 1</tspan></text><text transform="translate(90.56 537.46)" style="font-size:26.565120697021484px;font-family:Helvetica">POTENTIA<tspan x="132.84" y="0" style="letter-spacing:-0.03661403466196393em">L</tspan><tspan x="146.64" y="0" xml:space="preserve" style="letter-spacing:-0.000018380539488937715em"> FUTURE 2</tspan></text></g></g><g id="Channels"><line x1="1238.85" y1="263.79" x2="1249.85" y2="267.79" style="fill:none;stroke:#000;stroke-miterlimit:10;stroke-width:3px"/><line x1="1249.85" y1="252.43" x2="1257.85" y2="261.79" style="fill:none;stroke:#000;stroke-miterlimit:10;stroke-width:3px"/><line x1="1265.85" y1="247.45" x2="1265.85" y2="258.93" style="fill:none;stroke:#000;stroke-miterlimit:10;stroke-width:3px"/><line x1="1274.35" y1="261.79" x2="1281.62" y2="252.43" style="fill:none;stroke:#000;stroke-miterlimit:10;stroke-width:3px"/><line x1="1281.85" y1="268.79" x2="1292.72" y2="263.79" style="fill:none;stroke:#000;stroke-miterlimit:10;stroke-width:3px"/><line x1="1282.85" y1="278.79" x2="1295.65" y2="278.79" style="fill:none;stroke:#000;stroke-miterlimit:10;stroke-width:3px"/><line x1="1265.85" y1="654.24" x2="1265.85" y2="657.24" style="fill:none;stroke:#000;stroke-miterlimit:10;stroke-width:3px"/><line x1="1265.85" y1="663.01" x2="1265.85" y2="717.87" style="fill:none;stroke:#000;stroke-miterlimit:10;stroke-width:3px;stroke-dasharray:5.7740797996521,5.7740797996521"/><line x1="1265.85" y1="720.75" x2="1265.85" y2="723.75" style="fill:none;stroke:#000;stroke-miterlimit:10;stroke-width:3px"/><polyline points="1265.85 983.75 1265.85 1051.51 1305.85 1086.79" style="fill:none;stroke:#000;stroke-miterlimit:10;stroke-width:3px;stroke-dasharray:6"/><polyline points="1223.17 914.45 711.84 914.45 711.84 1086.79" style="fill:none;stroke:#000;stroke-miterlimit:10;stroke-width:3px"/><line x1="704.85" y1="1192.79" x2="704.85" y2="1919.53" style="fill:none;stroke:#000;stroke-miterlimit:10;stroke-width:3px"/><line x1="711.84" y1="1941.47" x2="987.85" y2="2207.79" style="fill:none;stroke:#000;stroke-miterlimit:10;stroke-width:3px"/><line x1="953.35" y1="2267.56" x2="455.36" y2="1798.99" style="fill:none;stroke:#000;stroke-miterlimit:10;stroke-width:3px"/><polyline points="1223.77 2312.25 1628.38 2312.25 1628.38 2112.66" style="fill:none;stroke:#000;stroke-miterlimit:10;stroke-width:3px"/><polyline points="1382.85 2109.79 1661.88 2109.79 1661.85 1978.79 1648.85 1971.79 1675.85 1964.79 1649.85 1956.79 1677.85 1949.79 1648.85 1941.79 1676.85 1933.79 1648.85 1925.79 1676.85 1918.79 1648.85 1910.79 1663.85 1903.79 1662.85 1244.79 1648.85 1236.79 1677.85 1228.75 1649.85 1221.79 1677.85 1214.13 1649.85 1205.79 1674.85 1198.79 1648.85 1190.79 1676.85 1183.79 1649.85 1175.79 1662.85 1168.79 1662.85 914.45 1493.93 914.45" style="fill:none;stroke:#000;stroke-miterlimit:10;stroke-width:3px"/><path d="M1706.5,1442.5v196H1550.3s-1.8-16-31.8-16-33.11,10.93-33.56,16c-.88-.94-73.44-3-73.44-3s-1-15-20-15-20.29,8.93-20.29,18c.29,0-71.29,0-71.29,0" transform="translate(-76.65 -67.71)" style="fill:none;stroke:#000;stroke-miterlimit:10;stroke-width:3px"/><line x1="1426.56" y1="1417.75" x2="1426.56" y2="1896.89" style="fill:none;stroke:#000;stroke-miterlimit:10;stroke-width:3px"/><line x1="1453.2" y1="1417.75" x2="1453.2" y2="1896.89" style="fill:none;stroke:#000;stroke-miterlimit:10;stroke-width:3px"/><line x1="955.25" y1="1537.98" x2="322.62" y2="1018.06" style="fill:none;stroke:#000;stroke-miterlimit:10;stroke-width:3px"/><line x1="704.85" y1="1248.87" x2="987.85" y2="1487.86" style="fill:none;stroke:#000;stroke-miterlimit:10;stroke-width:3px"/><line x1="1439.88" y1="192.84" x2="1441.85" y2="1225.79" style="fill:none;stroke:#000;stroke-miterlimit:10;stroke-width:3px"/><line x1="1366.85" y1="622.79" x2="1366.85" y2="1260.79" style="fill:none;stroke:#000;stroke-miterlimit:10;stroke-width:3px"/><polyline points="1314.85 957.79 1314.85 1304.21 1314.85 2039.58" style="fill:none;stroke:#000;stroke-miterlimit:10;stroke-width:3px"/><path d="M1811.5,1244.5" transform="translate(-76.65 -67.71)" style="fill:none;stroke:#000;stroke-miterlimit:10;stroke-width:3px"/><path d="M1459.5,1442.5" transform="translate(-76.65 -67.71)" style="fill:none;stroke:#000;stroke-miterlimit:10;stroke-width:3px"/><circle cx="1266.28" cy="277.51" r="11.5" style="fill:none;stroke:#000;stroke-miterlimit:10;stroke-width:2px"/><line x1="1266.28" y1="289.01" x2="1266.28" y2="292.01" style="fill:none;stroke:#000;stroke-miterlimit:10;stroke-width:4px"/><line x1="1266.28" y1="297.68" x2="1266.28" y2="385.64" style="fill:none;stroke:#000;stroke-miterlimit:10;stroke-width:4px;stroke-dasharray:5.6744842529296875,5.6744842529296875"/><line x1="1266.28" y1="388.48" x2="1266.28" y2="391.48" style="fill:none;stroke:#000;stroke-miterlimit:10;stroke-width:4px"/><line x1="1237.24" y1="277.51" x2="1248.15" y2="277.51" style="fill:none;stroke:#000;stroke-miterlimit:10;stroke-width:3px"/><polyline points="1228.27 406.86 550.71 406.86 494.75 458.81 1228.27 458.81" style="fill:none;stroke:#000;stroke-miterlimit:10;stroke-width:3px"/><polyline points="1228.27 519.25 429.89 514.55 494.75 458.81" style="fill:none;stroke:#000;stroke-miterlimit:10;stroke-width:3px"/><path d="M1217,1613" transform="translate(-76.65 -67.71)" style="fill:none;stroke:#000;stroke-miterlimit:10;stroke-width:2px"/><path d="M1111,1644" transform="translate(-76.65 -67.71)" style="fill:none;stroke:#000;stroke-miterlimit:10;stroke-width:2px"/><path d="M1594.5,1516.5" transform="translate(-76.65 -67.71)" style="fill:none;stroke:#000;stroke-miterlimit:10;stroke-width:7px"/><path d="M1553.78,1375.7" transform="translate(-76.65 -67.71)" style="fill:none;stroke:#000;stroke-miterlimit:10;stroke-width:7px"/><polyline points="1426.2 192.23 1426.03 1216.18 1084.03 1558.18" style="fill:none;stroke:#000;stroke-miterlimit:10;stroke-width:3px"/><text transform="translate(533.61 1919.84) rotate(44.04)" style="font-size:37px;font-family:Helvetica"><tspan style="letter-spacing:-0.07373046875em">V</tspan><tspan x="21.95" y="0">alue Stream</tspan></text><text transform="translate(518.48 1162.08) rotate(40.44)" style="font-size:37px;font-family:Helvetica">PURCHASE</text><text transform="translate(490.96 1207.91) rotate(40.44)" style="font-size:37px;font-family:Helvetica"><tspan style="letter-spacing:-0.07373046875em">V</tspan><tspan x="21.95" y="0">alue Stream</tspan></text><text transform="translate(564.5 1887.86) rotate(44.04)" style="font-size:37px;font-family:Helvetica">DELIVE<tspan x="131.61" y="0" style="letter-spacing:-0.017578125em">RY</tspan></text><text transform="translate(569.2 347.85)" style="font-size:23px;font-family:Helvetica">Scouts, exploration of<tspan x="6.37" y="27.6">demands and needs</tspan></text><g id="Interface"><circle cx="320.85" cy="1017.79" r="10.5" style="stroke:#000;stroke-miterlimit:10;stroke-width:2px"/><circle cx="429.85" cy="514.79" r="10.5" style="stroke:#000;stroke-miterlimit:10;stroke-width:2px"/><circle cx="490.85" cy="458.79" r="10.5" style="stroke:#000;stroke-miterlimit:10;stroke-width:2px"/><circle cx="547.85" cy="409.79" r="10.5" style="stroke:#000;stroke-miterlimit:10;stroke-width:2px"/><circle cx="952.85" cy="2268.79" r="10.5" style="stroke:#000;stroke-miterlimit:10;stroke-width:2px"/><circle cx="992.85" cy="2213.79" r="10.5" style="stroke:#000;stroke-miterlimit:10;stroke-width:2px"/><circle cx="705.85" cy="1931.79" r="10.5" style="stroke:#000;stroke-miterlimit:10;stroke-width:2px"/><circle cx="703.85" cy="1249.79" r="10.5" style="stroke:#000;stroke-miterlimit:10;stroke-width:2px"/><circle cx="983.85" cy="1481.79" r="10.5" style="stroke:#000;stroke-miterlimit:10;stroke-width:2px"/><circle cx="954.85" cy="1540.79" r="10.5" style="stroke:#000;stroke-miterlimit:10;stroke-width:2px"/><circle cx="710.85" cy="1087.79" r="10.5" style="stroke:#000;stroke-miterlimit:10;stroke-width:2px"/><circle cx="1425.85" cy="1157.79" r="4.5" style="fill:#fff;stroke:#000;stroke-miterlimit:10;stroke-width:2px"/><circle cx="1441.85" cy="1157.79" r="4.5" style="fill:#fff;stroke:#000;stroke-miterlimit:10;stroke-width:2px"/><circle cx="1314.85" cy="1091.79" r="8.5" style="fill:#fff;stroke:#000;stroke-miterlimit:10;stroke-width:2px"/><circle cx="1426.85" cy="1417.79" r="8.5" style="fill:#fff;stroke:#000;stroke-miterlimit:10;stroke-width:2px"/><circle cx="1453.85" cy="1417.79" r="8.5" style="fill:#fff;stroke:#000;stroke-miterlimit:10;stroke-width:2px"/><circle cx="1426.85" cy="1896.79" r="8.5" style="fill:#fff;stroke:#000;stroke-miterlimit:10;stroke-width:2px"/><circle cx="1452.85" cy="1896.79" r="8.5" style="fill:#fff;stroke:#000;stroke-miterlimit:10;stroke-width:2px"/><circle cx="1662.85" cy="1374.79" r="8.5" style="stroke:#000;stroke-miterlimit:10;stroke-width:2px"/><circle cx="1662.85" cy="2109.79" r="10.5" style="stroke:#000;stroke-miterlimit:10;stroke-width:2px"/><circle cx="1628.85" cy="2109.79" r="10.5" style="stroke:#000;stroke-miterlimit:10;stroke-width:2px"/><circle cx="1629.85" cy="1374.79" r="8.5" style="stroke:#000;stroke-miterlimit:10;stroke-width:2px"/><circle cx="454.85" cy="1800.79" r="8.5" style="stroke:#000;stroke-miterlimit:10;stroke-width:2px"/><circle cx="1227.85" cy="406.79" r="10.5" style="stroke:#000;stroke-miterlimit:10;stroke-width:2px"/><circle cx="1227.85" cy="458.79" r="10.5" style="stroke:#000;stroke-miterlimit:10;stroke-width:2px"/><circle cx="1227.85" cy="518.79" r="10.5" style="stroke:#000;stroke-miterlimit:10;stroke-width:2px"/><circle cx="1368.85" cy="622.79" r="10.5" style="stroke:#000;stroke-miterlimit:10;stroke-width:2px"/><circle cx="1314.85" cy="958.79" r="10.5" style="stroke:#000;stroke-miterlimit:10;stroke-width:2px"/><circle cx="1226.85" cy="459.79" r="10.5" style="stroke:#000;stroke-miterlimit:10;stroke-width:2px"/><circle cx="1226.85" cy="519.79" r="10.5" style="stroke:#000;stroke-miterlimit:10;stroke-width:2px"/><circle cx="1425.85" cy="192.79" r="4.5" style="fill:#fff;stroke:#000;stroke-miterlimit:10;stroke-width:2px"/><circle cx="1439.85" cy="192.79" r="4.5" style="fill:#fff;stroke:#000;stroke-miterlimit:10;stroke-width:2px"/><circle cx="1425.85" cy="391.79" r="4.5" style="fill:#fff;stroke:#000;stroke-miterlimit:10;stroke-width:2px"/><circle cx="1440.85" cy="391.79" r="4.5" style="fill:#fff;stroke:#000;stroke-miterlimit:10;stroke-width:2px"/><circle cx="1425.85" cy="723.79" r="4.5" style="fill:#fff;stroke:#000;stroke-miterlimit:10;stroke-width:2px"/><circle cx="1441.85" cy="723.79" r="4.5" style="fill:#fff;stroke:#000;stroke-miterlimit:10;stroke-width:2px"/><circle cx="1425.85" cy="983.79" r="4.5" style="fill:#fff;stroke:#000;stroke-miterlimit:10;stroke-width:2px"/><circle cx="1441.85" cy="983.79" r="4.5" style="fill:#fff;stroke:#000;stroke-miterlimit:10;stroke-width:2px"/><circle cx="1662.85" cy="914.79" r="8.5" style="stroke:#000;stroke-miterlimit:10;stroke-width:2px"/></g></g><g id="Text"><text transform="translate(62.01 2654.38)" style="font-size:49px;font-family:Helvetica"><tspan style="letter-spacing:-0.017578125em">V</tspan><tspan x="31.82" y="0">iable System Model</tspan></text><text transform="translate(63.27 2717.33)" style="font-size:37px;font-family:Helvetica">Sta<tspan x="55.54" y="0" style="letter-spacing:-0.017578125em">f</tspan><tspan x="65.17" y="0">ford Beer</tspan></text><text transform="translate(785.14 2598.73)" style="font-size:28px;font-family:Helvetica"><tspan style="letter-spacing:-0.03662109375em">T</tspan><tspan x="16.08" y="0">ransducer</tspan></text><text transform="translate(1129.04 2596.27)" style="font-size:28px;font-family:Helvetica">Channels</text><text id="iv_Overlapping_Sub-Environments_v_Anti-Oscillation_autonomous_vi_Sporadic_Audits" data-name="iv Overlapping Sub-Environments v Anti-Oscillation, autonomous vi Sporadic Audits" transform="translate(1499.12 2653.33)" style="font-size:28px;font-family:Helvetica">iv Overlapping Sub-Environments<tspan x="0" y="33.6">v</tspan><tspan x="14" y="33.6" style="letter-spacing:-0.0546875em"> </tspan><tspan x="20.25" y="33.6">Anti-Oscillation, autonomous</tspan><tspan x="0" y="67.2">vi Sporadic</tspan><tspan x="138.51" y="67.2" style="letter-spacing:-0.0546875em"> </tspan><tspan x="144.76" y="67.2">Audits</tspan></text><text transform="translate(1136.93 2653.33)" style="font-size:28px;font-family:Helvetica">i.Interventions &amp; Rules<tspan x="0" y="33.6">ii.Resource Bargain</tspan><tspan x="0" y="67.2">iii Operational Linkages</tspan></text><text transform="translate(792.11 2653.04)" style="font-size:28px;font-family:Helvetica"><tspan xml:space="preserve">Each    represents an </tspan><tspan x="0" y="33.6">interface between each</tspan><tspan x="0" y="67.2">subsystem</tspan></text><circle cx="864.85" cy="2642.79" r="10.5" style="stroke:#000;stroke-miterlimit:10;stroke-width:2px"/></g><g id="Management"><path d="M1575.58,208.68s354.34,9.79,246.34,446.79" transform="translate(-76.65 -67.71)" style="fill:none"/><path d="M1299.92,208.68s-349,6.79-246,452.79" transform="translate(-76.65 -67.71)" style="fill:none;stroke:#000;stroke-miterlimit:10;stroke-width:3px"/><path d="M1576.44,208.77s349,6.79,246,452.79" transform="translate(-76.65 -67.71)" style="fill:none;stroke:#000;stroke-miterlimit:10;stroke-width:3px"/><path d="M1677.42,631" transform="translate(-76.65 -67.71)" style="fill:none;stroke:#000;stroke-miterlimit:10;stroke-width:5px"/><path d="M1576.44,638.83" transform="translate(-76.65 -67.71)" style="fill:none;stroke:#000;stroke-miterlimit:10;stroke-width:5px"/><path d="M1299.92,646.27l-120,.2c-100-3-149,29-148,96.83s78,94.17,155.43,93.71l17.84-.09" transform="translate(-76.65 -67.71)" style="fill:none;stroke:#999;stroke-miterlimit:10;stroke-width:40px"/><polygon points="1109.28 835.12 1223.27 769.3 1109.28 703.48 1109.28 835.12" style="fill:#999"/><path d="M1574.92,638.92s35.14.45,112.57,0,154.43,25.88,155.43,93.71-48,99.84-148,96.84l-25.27,0" transform="translate(-76.65 -67.71)" style="fill:none;stroke:#999;stroke-miterlimit:10;stroke-width:40px"/><polygon points="1612.14 695.94 1498.27 761.95 1612.36 827.58 1612.14 695.94" style="fill:#999"/><rect x="834.27" y="21.75" width="1025" height="995" style="fill:none;stroke:#000;stroke-miterlimit:10;stroke-width:5px"/><path d="M1299.82,982.16" transform="translate(-76.65 -67.71)"/><text transform="translate(1147.28 348.05)" style="font-size:23px;font-family:Helvetica">Algedonic<tspan x="12.17" y="27.6">System</tspan></text><text transform="translate(1608.75 70.3)" style="font-size:23px;font-family:Helvetica">Meta System <tspan x="-38.35" y="27.6">(relative to System 1)</tspan></text><g id="System_3" data-name="System 3"><text transform="translate(1237.17 754.17)" style="font-size:23px;font-family:Helvetica">Inside &amp; <tspan x="0" y="27.6">Now</tspan></text><text transform="translate(1237.69 805.37)" style="font-size:23px;font-family:Helvetica"><tspan style="letter-spacing:-0.11081861413043478em">T</tspan><tspan x="11.5" y="0">actics</tspan><tspan x="0" y="27.6">Internal</tspan><tspan x="0" y="55.2">Symbiosis</tspan><tspan x="0" y="82.8">Win-Win</tspan><tspan x="0" y="110.4">Synergy</tspan></text><text transform="translate(1050.9 941.85)" style="font-size:23px;font-family:Helvetica">Optimization of <tspan x="-8.96" y="27.6">Self-Organisation</tspan></text><text transform="translate(1057.66 892.44)" style="font-size:35px;fill:#00a3ff;font-family:Helvetica-Bold, Helvetica;font-weight:700">THREE</text><rect x="1223.27" y="723.75" width="270.66" height="260" style="fill:none;stroke:#000;stroke-miterlimit:10;stroke-width:5px"/></g><g id="System_4" data-name="System 4"><text transform="translate(1250.4 421.91)" style="font-size:23px;font-family:Helvetica">Outside &amp; Future</text><text transform="translate(1249.32 454.77)" style="font-size:23px;font-family:Helvetica">Strategies<tspan x="0" y="27.6">Scenario De</tspan><tspan x="126.57" y="27.6" style="letter-spacing:-0.07375169836956522em">v</tspan><tspan x="136.37" y="27.6">.</tspan><tspan x="0" y="55.2">Simulations</tspan><tspan x="0" y="82.8">Innovation,</tspan><tspan x="0" y="110.4">Pre-Adaptive,</tspan><tspan x="0" y="138">Hypothesis Driven</tspan></text><rect x="1228.27" y="391.75" width="270.66" height="260" style="fill:none;stroke:#000;stroke-miterlimit:10;stroke-width:5px"/><text transform="translate(1122.11 672.74)" style="font-size:35px;fill:#2549ff;font-family:Helvetica-Bold, Helvetica;font-weight:700">FOUR</text><text transform="translate(1514.17 470.47)" style="font-size:35px;fill:#2549ff;font-family:Helvetica"><tspan style="letter-spacing:-0.017578125em">A</tspan><tspan x="22.73" y="0">wareness</tspan></text></g><g id="System_5" data-name="System 5"><text transform="translate(1294.7 148.11)" style="font-size:25px;font-family:Helvetica">Atmosphere</text><text transform="translate(1520.01 252.47)" style="font-size:35px;fill:#a21aff;font-family:Helvetica">Identity</text><text transform="translate(1308.91 208.19)" style="font-size:23px;font-family:Helvetica">Norms<tspan x="-36.44" y="27.6">Belief System</tspan><tspan x="-0.46" y="55.2" style="letter-spacing:-0.07375169836956522em">V</tspan><tspan x="13.19" y="55.2">alues</tspan></text><text transform="translate(1114.73 84.15)" style="font-size:35px;fill:#a21aff;font-family:Helvetica-Bold, Helvetica;font-weight:700">FIVE</text><text transform="translate(1319.31 89.19)" style="font-size:30px;font-family:Helvetica">ETHOS</text><path d="M1435,244.81h87.68s25.57-1.81,25.57-24.81V190.25s-6.25-24.12-24.13-24.12H1435" transform="translate(-76.65 -67.71)" style="fill:none;stroke:#000;stroke-miterlimit:10;stroke-width:5px"/><path d="M1440.25,244.81h-87.68S1327,243,1327,220V190.25s6.25-24.12,24.13-24.12h89.12" transform="translate(-76.65 -67.71)" style="fill:none;stroke:#000;stroke-miterlimit:10;stroke-width:5px"/><rect x="1228.27" y="59.75" width="270.66" height="260" style="fill:none;stroke:#000;stroke-miterlimit:10;stroke-width:5px"/></g></g><g id="Execution"><g id="System_3_" data-name="System 3*"><polygon points="646.98 1086.79 705.97 1194.79 763.26 1086.79 646.98 1086.79" style="fill:none;stroke:#000;stroke-miterlimit:10;stroke-width:5px"/><text transform="translate(693.35 1133.76) scale(1.06 1)" style="font-size:30.565120697021484px;font-family:Helvetica">3*</text><text transform="translate(761.26 1125.39)" style="font-size:35px;fill:#ffa901;font-family:Helvetica-Bold, Helvetica;font-weight:700">THREE S<tspan x="151.69" y="0" style="letter-spacing:-0.07371651785714285em">T</tspan><tspan x="170.49" y="0">AR</tspan></text><text transform="translate(788.36 1162.36)" style="font-size:22px;font-family:Helvetica">Sporadic<tspan x="86.83" y="0" style="letter-spacing:-0.0546875em"> </tspan><tspan x="91.74" y="0">Audits</tspan><tspan x="0" y="26.4">Anomaly Detection</tspan><tspan x="0" y="52.8">Learning Potential</tspan></text></g><text transform="translate(1499.16 1183.22)" style="font-size:23px;font-family:Helvetica">Local<tspan x="0" y="27.6">Management</tspan></text><text transform="translate(1521.4 1524.55)" style="font-size:23px;font-family:Helvetica">Local <tspan x="-24.3" y="27.6">Regulation</tspan></text><text transform="translate(1500.66 1913.48)" style="font-size:23px;font-family:Helvetica">Local<tspan x="0" y="27.6">Management</tspan></text><text transform="translate(1519.21 2270.32)" style="font-size:23px;font-family:Helvetica">Local <tspan x="-24.3" y="27.6">Regulation</tspan></text><text transform="translate(769.22 1712.82)" style="font-size:31px;font-family:Helvetica"><tspan style="letter-spacing:-0.07371471774193548em">V</tspan><tspan x="18.39" y="0">alue Production</tspan></text><text transform="translate(571.23 1648.27)" style="font-size:35px;fill:#00934a;font-family:Helvetica"><tspan style="letter-spacing:-0.07371651785714285em">V</tspan><tspan x="20.76" y="0">alue </tspan><tspan x="-17.82" y="42">Creation</tspan></text><g id="System_2" data-name="System 2"><text transform="translate(1738.48 961.99)" style="font-size:23px;font-family:Helvetica">Overall<tspan x="-35.81" y="27.6">harmonization</tspan></text><text transform="translate(1737.2 916.03)" style="font-size:35px;fill:red;font-family:Helvetica-Bold, Helvetica;font-weight:700">TWO</text><polygon points="1705.27 961.75 1646.28 853.75 1588.98 961.75 1705.27 961.75" style="fill:none;stroke:#000;stroke-miterlimit:10;stroke-width:5px"/><polygon points="1705.27 1396.25 1646.28 1288.25 1588.98 1396.25 1705.27 1396.25" style="fill:none;stroke:#000;stroke-miterlimit:10;stroke-width:5px"/><polygon points="1705.27 2135.25 1646.28 2027.25 1588.98 2135.25 1705.27 2135.25" style="fill:none;stroke:#000;stroke-miterlimit:10;stroke-width:5px"/><text transform="translate(1737.2 1356.34)" style="font-size:35px;fill:red;font-family:Helvetica-Bold, Helvetica;font-weight:700">TWO</text><text transform="translate(1694.02 2081.72)" style="font-size:35px;fill:red;font-family:Helvetica-Bold, Helvetica;font-weight:700">TWO</text><text transform="translate(1749.1 1394.49)" style="font-size:23px;font-family:Helvetica">Daily<tspan x="-42.84" y="27.6">Coordination,</tspan><tspan x="-48.58" y="55.2">Harmonization</tspan><tspan x="-51.79" y="82.8">e.g. Production</tspan><tspan x="-19.2" y="110.4">Planning</tspan></text></g><g id="Systems_1" data-name="Systems 1"><text transform="translate(748 2447.95)" style="font-size:31px;font-family:Helvetica"><tspan style="letter-spacing:-0.07371471774193548em">V</tspan><tspan x="18.39" y="0">alue Production</tspan></text><g id="subsystems"><line x1="1367.03" y1="1263.8" x2="1072.66" y2="1558.18" style="fill:none;stroke:#000;stroke-miterlimit:10;stroke-width:3px"/><line x1="1315.03" y1="1303.6" x2="1060.85" y2="1558.18" style="fill:none;stroke:#000;stroke-miterlimit:10;stroke-width:3px"/><polyline points="1297.93 1294.8 1266.03 1260.18 1198.03 1325.18" style="fill:none;stroke:#000;stroke-miterlimit:10;stroke-width:3px"/><line x1="997.03" y1="1527.18" x2="1175.53" y2="1347.68" style="fill:none;stroke:#000;stroke-miterlimit:10;stroke-width:3px"/><polyline points="1663.22 1374.18 1383.03 1374.18 1289.15 1472.17 1274.53 1467.68 1289.53 1494.68 1263.53 1477.68 1276.53 1504.68 1252.19 1487.26 1264.72 1511.51 1240.92 1498.07 1255.11 1527.18 1229.65 1511.51 1234.53 1522.68 1130.53 1625.68" style="fill:none;stroke:#000;stroke-miterlimit:10;stroke-width:2px"/><line x1="1338.53" y1="1328.68" x2="1383.03" y2="1374.18" style="fill:none;stroke:#000;stroke-miterlimit:10;stroke-width:2px"/><polygon points="1356.53 1308.68 1319.53 1272.68 1282.53 1311.68 1319.53 1347.05 1356.53 1308.68" style="fill:none;stroke:#000;stroke-miterlimit:10;stroke-width:2px"/><polyline points="1120.53 1618.68 1092.53 1644.68 1023.53 1577.68" style="fill:none;stroke:#000;stroke-miterlimit:10;stroke-width:2px"/><line x1="1080.45" y1="1577.68" x2="1116.53" y2="1613.68" style="fill:none;stroke:#000;stroke-miterlimit:10;stroke-width:2px"/><polygon points="1103.53 1616.68 1138.53 1608.68 1130.53 1644.68 1103.53 1616.68" style="fill:none;stroke:#000;stroke-miterlimit:10;stroke-width:2px"/><polygon points="1161.53 1562.68 1197.53 1552.68 1187.94 1588.84 1161.53 1562.68" style="fill:none;stroke:#000;stroke-miterlimit:10;stroke-width:2px"/><polygon points="1124.53 1529.68 1098.49 1505.57 1122.53 1480.68 1146.89 1507.36 1124.53 1529.68" style="fill:none;stroke:#000;stroke-miterlimit:10;stroke-width:2px"/><polygon points="1042.53 1562.68 1066.53 1585.68 1088.9 1562.68 1065.71 1539.72 1042.53 1562.68" style="fill:none;stroke:#000;stroke-miterlimit:10;stroke-width:2px"/><line x1="1032.48" y1="1562.7" x2="1042.53" y2="1562.68" style="fill:none;stroke:#000;stroke-miterlimit:10;stroke-width:2px"/><polyline points="1025.53 1548.68 1023.53 1537.37 1037.5 1539.72 1037.5 1529.68 1048.83 1529.68 1048.83 1517.6" style="fill:none;stroke:#000;stroke-miterlimit:10;stroke-width:4px"/><path d="M1522.18,1297.57s8.65,9.82,20.82,30.32,24,52.54-10.41,72.52c-15.41,7-15.88,3.56-15.88,3.56" transform="translate(-76.65 -67.71)" style="fill:none;stroke:#000;stroke-miterlimit:10;stroke-width:4px"/><path d="M1476,1259.58l-42.81-23.69s-41-23.5-70,29.5" transform="translate(-76.65 -67.71)" style="fill:none;stroke:#000;stroke-miterlimit:10;stroke-width:4px"/><path d="M1477.64,1333.84s18,7.05,32.54,32.55-1.54,38-10.27,44.49c-7.57,5.64-23.6,13.16-53.78-13.59" transform="translate(-76.65 -67.71)" style="fill:none;stroke:#999;stroke-miterlimit:10;stroke-width:7px"/><polygon points="1382.94 1321.88 1354.53 1314.68 1362.49 1342.89 1382.94 1321.88" style="fill:#999"/><path d="M1391.52,1341.86s-17.9-7.41-31.89-33.19,2.29-37.93,11.14-44.27c7.68-5.5,23.85-12.7,53.51,14.64" transform="translate(-76.65 -67.71)" style="fill:none;stroke:#999;stroke-miterlimit:10;stroke-width:7px"/><polygon points="1334 1218.75 1362.27 1226.52 1354.87 1198.15 1334 1218.75" style="fill:#999"/><polygon points="1175.03 1347.18 1183.03 1312.18 1211.03 1341.18 1175.03 1347.18" style="fill:none;stroke:#000;stroke-miterlimit:10;stroke-width:3px"/><polygon points="1390.03 1394.18 1398.03 1357.18 1360.78 1367.16 1390.03 1394.18" style="fill:none;stroke:#000;stroke-miterlimit:10;stroke-width:3px"/><circle cx="1009.03" cy="1562.18" r="22" style="fill:none;stroke:#000;stroke-miterlimit:10;stroke-width:3px"/><circle cx="1066.03" cy="1506.18" r="22" style="fill:none;stroke:#000;stroke-miterlimit:10;stroke-width:3px"/><circle cx="1053.53" cy="1469.68" r="2.5" style="stroke:#000;stroke-miterlimit:10;stroke-width:3px"/><circle cx="1053.53" cy="1488.68" r="2.5" style="stroke:#000;stroke-miterlimit:10;stroke-width:3px"/><circle cx="994.53" cy="1528.68" r="2.5" style="stroke:#000;stroke-miterlimit:10;stroke-width:3px"/><circle cx="994.53" cy="1544.68" r="2.5" style="stroke:#000;stroke-miterlimit:10;stroke-width:3px"/><circle cx="1023.53" cy="1577.68" r="2.5" style="stroke:#000;stroke-miterlimit:10;stroke-width:3px"/><circle cx="1080.53" cy="1577.68" r="2.5" style="stroke:#000;stroke-miterlimit:10;stroke-width:3px"/><circle cx="1081.53" cy="1521.68" r="2.5" style="stroke:#000;stroke-miterlimit:10;stroke-width:3px"/><circle cx="1120.53" cy="1618.68" r="2.5" style="stroke:#000;stroke-miterlimit:10;stroke-width:3px"/><circle cx="1178.53" cy="1563.68" r="2.5" style="stroke:#000;stroke-miterlimit:10;stroke-width:3px"/><circle cx="1137.53" cy="1522.68" r="2.5" style="stroke:#000;stroke-miterlimit:10;stroke-width:3px"/><circle cx="1202.03" cy="1415.18" r="4" style="fill:#fff;stroke:#000;stroke-miterlimit:10;stroke-width:2px"/><circle cx="1185.53" cy="1569.68" r="2.5" style="stroke:#000;stroke-miterlimit:10;stroke-width:3px"/><circle cx="1125.53" cy="1624.68" r="2.5" style="stroke:#000;stroke-miterlimit:10;stroke-width:3px"/><circle cx="1314.53" cy="1303.68" r="2.5" style="stroke:#000;stroke-miterlimit:10;stroke-width:3px"/><circle cx="1338.53" cy="1328.68" r="2.5" style="stroke:#000;stroke-miterlimit:10;stroke-width:3px"/><circle cx="1383.53" cy="1374.68" r="2.5" style="stroke:#000;stroke-miterlimit:10;stroke-width:3px"/><polyline points="1137.53 1522.68 1178.53 1561.18 1149.86 1588.84 1081.53 1521.68" style="fill:none;stroke:#000;stroke-miterlimit:10;stroke-width:3px"/><line x1="1053.53" y1="1469.68" x2="1053.53" y2="1491.18" style="stroke:#000;stroke-miterlimit:10;stroke-width:2px"/><line x1="994.53" y1="1544.68" x2="994.53" y2="1528.68" style="stroke:#000;stroke-miterlimit:10;stroke-width:2px"/><polyline points="1202.03 1415.18 1202.03 1411.18 1202.03 1398.72 1286.33 1315.32" style="fill:none;stroke:#000;stroke-miterlimit:10;stroke-width:2px;stroke-dasharray:6"/><polygon points="1386.03 1205.18 1423.03 1168.18 1460.48 1205.18 1423.03 1243.18 1386.03 1205.18" style="fill:none;stroke:#000;stroke-miterlimit:10;stroke-width:3px"/><polygon points="1372.03 1219.18 1410.03 1257.18 1372.03 1294.8 1334.03 1256.18 1372.03 1219.18" style="fill:none;stroke:#000;stroke-miterlimit:10;stroke-width:3px"/><line x1="1365.08" y1="2002.63" x2="1070.72" y2="2297.01" style="fill:none;stroke:#000;stroke-miterlimit:10;stroke-width:3px"/><line x1="1313.08" y1="2042.43" x2="1058.9" y2="2297.01" style="fill:none;stroke:#000;stroke-miterlimit:10;stroke-width:3px"/><polyline points="1295.98 2033.62 1264.08 1999.01 1196.08 2064.01" style="fill:none;stroke:#000;stroke-miterlimit:10;stroke-width:3px"/><line x1="995.08" y1="2266.01" x2="1173.58" y2="2086.51" style="fill:none;stroke:#000;stroke-miterlimit:10;stroke-width:3px"/><polyline points="1661.28 2113.01 1381.08 2113.01 1287.2 2211 1272.58 2206.51 1287.58 2233.51 1261.58 2216.51 1274.58 2243.51 1250.25 2226.08 1262.77 2250.34 1238.97 2236.9 1253.16 2266.01 1227.7 2250.34 1232.58 2261.51 1128.58 2364.51" style="fill:none;stroke:#000;stroke-miterlimit:10;stroke-width:2px"/><line x1="1336.58" y1="2067.51" x2="1381.08" y2="2113.01" style="fill:none;stroke:#000;stroke-miterlimit:10;stroke-width:2px"/><polygon points="1354.58 2047.51 1317.58 2011.51 1280.58 2050.51 1317.58 2085.88 1354.58 2047.51" style="fill:none;stroke:#000;stroke-miterlimit:10;stroke-width:2px"/><polyline points="1118.58 2357.51 1090.58 2383.51 1021.58 2316.51" style="fill:none;stroke:#000;stroke-miterlimit:10;stroke-width:2px"/><line x1="1078.5" y1="2316.51" x2="1114.58" y2="2352.51" style="fill:none;stroke:#000;stroke-miterlimit:10;stroke-width:2px"/><polygon points="1101.58 2355.51 1136.58 2347.51 1128.58 2383.51 1101.58 2355.51" style="fill:none;stroke:#000;stroke-miterlimit:10;stroke-width:2px"/><polygon points="1159.58 2301.51 1195.58 2291.51 1185.99 2327.66 1159.58 2301.51" style="fill:none;stroke:#000;stroke-miterlimit:10;stroke-width:2px"/><polygon points="1122.58 2268.51 1096.54 2244.4 1120.58 2219.51 1144.94 2246.19 1122.58 2268.51" style="fill:none;stroke:#000;stroke-miterlimit:10;stroke-width:2px"/><polygon points="1040.58 2301.51 1064.58 2324.51 1086.95 2301.51 1063.76 2278.55 1040.58 2301.51" style="fill:none;stroke:#000;stroke-miterlimit:10;stroke-width:2px"/><line x1="1030.53" y1="2301.53" x2="1040.58" y2="2301.51" style="fill:none;stroke:#000;stroke-miterlimit:10;stroke-width:2px"/><polyline points="1023.58 2287.51 1021.58 2276.2 1035.55 2278.55 1035.55 2268.51 1046.88 2268.51 1046.88 2256.43" style="fill:none;stroke:#000;stroke-miterlimit:10;stroke-width:4px"/><path d="M1520.23,2036.4s8.65,9.82,20.82,30.32,24,52.53-10.41,72.52c-15.41,7-15.88,3.56-15.88,3.56" transform="translate(-76.65 -67.71)" style="fill:none;stroke:#000;stroke-miterlimit:10;stroke-width:4px"/><path d="M1474,1998.41l-42.81-23.69s-41-23.5-70,29.5" transform="translate(-76.65 -67.71)" style="fill:none;stroke:#000;stroke-miterlimit:10;stroke-width:4px"/><path d="M1475.69,2072.67s18,7,32.54,32.55-1.54,38-10.27,44.49c-7.56,5.64-23.6,13.15-53.78-13.59" transform="translate(-76.65 -67.71)" style="fill:none;stroke:#999;stroke-miterlimit:10;stroke-width:7px"/><polygon points="1380.99 2060.71 1352.58 2053.51 1360.54 2081.72 1380.99 2060.71" style="fill:#999"/><path d="M1389.58,2080.68s-17.9-7.4-31.9-33.18,2.29-37.94,11.14-44.28c7.68-5.49,23.86-12.69,53.51,14.65" transform="translate(-76.65 -67.71)" style="fill:none;stroke:#999;stroke-miterlimit:10;stroke-width:7px"/><polygon points="1332.06 1957.58 1360.33 1965.34 1352.92 1936.98 1332.06 1957.58" style="fill:#999"/><polygon points="1173.08 2086.01 1181.08 2051.01 1209.08 2080.01 1173.08 2086.01" style="fill:none;stroke:#000;stroke-miterlimit:10;stroke-width:3px"/><polygon points="1388.08 2133.01 1396.08 2096.01 1358.83 2105.99 1388.08 2133.01" style="fill:none;stroke:#000;stroke-miterlimit:10;stroke-width:3px"/><circle cx="1007.08" cy="2301.01" r="22" style="fill:none;stroke:#000;stroke-miterlimit:10;stroke-width:3px"/><circle cx="1064.08" cy="2245.01" r="22" style="fill:none;stroke:#000;stroke-miterlimit:10;stroke-width:3px"/><circle cx="1051.58" cy="2208.51" r="2.5" style="stroke:#000;stroke-miterlimit:10;stroke-width:3px"/><circle cx="1051.58" cy="2227.51" r="2.5" style="stroke:#000;stroke-miterlimit:10;stroke-width:3px"/><circle cx="992.58" cy="2267.51" r="2.5" style="stroke:#000;stroke-miterlimit:10;stroke-width:3px"/><circle cx="992.58" cy="2283.51" r="2.5" style="stroke:#000;stroke-miterlimit:10;stroke-width:3px"/><circle cx="1021.58" cy="2316.51" r="2.5" style="stroke:#000;stroke-miterlimit:10;stroke-width:3px"/><circle cx="1078.58" cy="2316.51" r="2.5" style="stroke:#000;stroke-miterlimit:10;stroke-width:3px"/><circle cx="1079.58" cy="2260.51" r="2.5" style="stroke:#000;stroke-miterlimit:10;stroke-width:3px"/><circle cx="1118.58" cy="2357.51" r="2.5" style="fill:none;stroke:#000;stroke-miterlimit:10;stroke-width:3px"/><circle cx="1176.58" cy="2302.51" r="2.5" style="stroke:#000;stroke-miterlimit:10;stroke-width:3px"/><circle cx="1135.58" cy="2261.51" r="2.5" style="stroke:#000;stroke-miterlimit:10;stroke-width:3px"/><circle cx="1200.08" cy="2154.01" r="4" style="fill:#fff;stroke:#000;stroke-miterlimit:10;stroke-width:2px"/><circle cx="1183.58" cy="2308.51" r="2.5" style="stroke:#000;stroke-miterlimit:10;stroke-width:3px"/><circle cx="1123.58" cy="2363.51" r="2.5" style="stroke:#000;stroke-miterlimit:10;stroke-width:3px"/><circle cx="1312.58" cy="2042.51" r="2.5" style="stroke:#000;stroke-miterlimit:10;stroke-width:3px"/><circle cx="1336.58" cy="2067.51" r="2.5" style="stroke:#000;stroke-miterlimit:10;stroke-width:3px"/><circle cx="1381.58" cy="2113.51" r="2.5" style="stroke:#000;stroke-miterlimit:10;stroke-width:3px"/><polyline points="1135.58 2261.51 1176.58 2300.01 1147.91 2327.66 1079.58 2260.51" style="fill:none;stroke:#000;stroke-miterlimit:10;stroke-width:3px"/><line x1="1051.58" y1="2208.51" x2="1051.58" y2="2230.01" style="stroke:#000;stroke-miterlimit:10;stroke-width:2px"/><line x1="992.58" y1="2283.51" x2="992.58" y2="2267.51" style="stroke:#000;stroke-miterlimit:10;stroke-width:2px"/><polyline points="1200.08 2154.01 1200.08 2150.01 1200.08 2137.55 1284.38 2054.14" style="fill:none;stroke:#000;stroke-miterlimit:10;stroke-width:2px;stroke-dasharray:6"/><polygon points="1384.08 1944.01 1421.08 1907.01 1458.53 1944.01 1421.08 1982.01 1384.08 1944.01" style="fill:none;stroke:#000;stroke-miterlimit:10;stroke-width:3px"/><polygon points="1370.08 1958.01 1408.08 1996.01 1370.08 2033.62 1332.08 1995.01 1370.08 1958.01" style="fill:none;stroke:#000;stroke-miterlimit:10;stroke-width:3px"/></g><rect x="1223.27" y="1157.75" width="270.66" height="260" style="fill:none;stroke:#000;stroke-miterlimit:10;stroke-width:5px"/><rect x="1223.17" y="1896.89" width="270.66" height="260" style="fill:none;stroke:#000;stroke-miterlimit:10;stroke-width:5px"/><polyline points="1106.27 1706.75 1047.27 1735.75 1106.27 1766.87 1047.27 1801.41 1113.27 1833.75 1047.27 1867.04 1106.29 1896.89 1047.27 1930.94 1113.27 1968.94 1047.27 1998.3 1104.56 2026.89 1047.27 2057.01 1104.27 2086.75 1047.27 2120.91 1104.27 2146.75 1047.27 2176.18" style="fill:none;stroke:#000;stroke-miterlimit:10;stroke-width:7px"/><circle cx="1087.27" cy="1570.75" r="136" style="fill:none;stroke:#000;stroke-miterlimit:10;stroke-width:5px"/><circle cx="1087.77" cy="2312.25" r="136" style="fill:none;stroke:#000;stroke-miterlimit:10;stroke-width:5px"/><text transform="translate(959.33 1426.8)" style="font-size:35px;fill:#00934a;font-family:Helvetica-Bold, Helvetica;font-weight:700">ONE</text><text transform="translate(1181.82 1137.9)" style="font-size:35px;fill:#00934a;font-family:Helvetica-Bold, Helvetica;font-weight:700">ONE</text><text transform="translate(1182.26 1873.92)" style="font-size:35px;fill:#00934a;font-family:Helvetica-Bold, Helvetica;font-weight:700">ONE</text><text transform="translate(959.26 2165.92)" style="font-size:35px;fill:#00934a;font-family:Helvetica-Bold, Helvetica;font-weight:700">ONE</text></g><rect x="1677.35" y="1808.29" width="63" height="49" style="fill:#ccc;stroke:gray;stroke-miterlimit:10;stroke-width:4px"/><rect x="1034.35" y="1808.29" width="63" height="49" style="fill:#ccc;stroke:gray;stroke-miterlimit:10;stroke-width:4px"/><text transform="translate(1702.85 1838.79)" style="font-size:29px;fill:#fff;font-family:Helvetica">v</text><text transform="translate(1055.98 1841.92)" style="font-size:29px;fill:#fff;font-family:Helvetica">iii</text><text transform="translate(941.98 1856.92)" style="font-size:29px;fill:#fff;font-family:Helvetica">iii</text><text transform="translate(1314.16 2239.98)" style="font-size:29px;fill:#fff;font-family:Helvetica">iii</text><rect x="293.35" y="1808.29" width="63" height="49" style="fill:#ccc;stroke:gray;stroke-miterlimit:10;stroke-width:4px"/><text transform="translate(314.18 1841.65)" style="font-size:29px;fill:#fff;font-family:Helvetica">iv</text><rect x="680.35" y="1808.29" width="63" height="49" style="fill:#ccc;stroke:gray;stroke-miterlimit:10;stroke-width:4px"/><text transform="translate(699.32 1841.47)" style="font-size:29px;fill:#fff;font-family:Helvetica">vi</text><rect x="1352.35" y="1808.29" width="63" height="49" style="fill:#ccc;stroke:gray;stroke-miterlimit:10;stroke-width:4px"/><text transform="translate(1374.85 1841.79)" style="font-size:29px;fill:#fff;font-family:Helvetica">ii</text><text x="-76.65" y="-67.71"/><rect x="1467.35" y="1806.29" width="63" height="49" style="fill:#ccc;stroke:gray;stroke-miterlimit:10;stroke-width:4px"/><text transform="translate(1495.85 1838.79)" style="font-size:29px;fill:#fff;font-family:Helvetica">i</text><text x="-76.65" y="-67.71"/></g></svg>
